<svg
    width="120"
    height="132"
    viewBox="0 0 120 132"
    fill="none"
    xmlns="http://www.w3.org/2000/svg"
>
    <path
        d="M24 109.111V46.8889C24 41.9797 27.9797 38 32.8889 38H92.4444C93.9173 38 95.1111 39.1939 95.1111 40.6667V100.222"
        stroke="#40BA21"
        stroke-width="4"
    />
    <path
        d="M77.3329 63.6878C77.3329 66.3608 76.2773 68.9281 74.392 70.8271C70.0525 75.2004 65.844 79.7604 61.3422 83.9747C60.3107 84.9267 58.6738 84.892 57.6862 83.8969L44.7173 70.8271C40.7973 66.8767 40.7973 60.4989 44.7173 56.5484C48.6759 52.5591 55.1249 52.5591 59.0831 56.5484L59.5547 57.0234L60.0258 56.5487C61.924 54.6349 64.5089 53.5555 67.2089 53.5555C69.9093 53.5555 72.4942 54.6348 74.392 56.5484C76.2773 58.4477 77.3329 61.0149 77.3329 63.6878Z"
        stroke="#40BA21"
        stroke-width="4"
    />
    <path
        d="M32.8887 100.222C32.8887 100.222 72.7005 100.222 96.9998 100.222"
        stroke="#40BA21"
        stroke-width="4"
    />
    <path d="M32.8887 118H95.1109" stroke="#40BA21" stroke-width="4" />
    <path
        d="M32.8889 118C27.9797 118 24 114.02 24 109.111C24 104.202 27.9797 100.222 32.8889 100.222"
        stroke="#40BA21"
        stroke-width="4"
    />
</svg>
