<svg
    width="120"
    height="132"
    viewBox="0 0 120 132"
    fill="none"
    xmlns="http://www.w3.org/2000/svg"
>
    <path
        d="M74.4702 103.176C82.2671 103.176 88.5878 96.8558 88.5878 89.0588C88.5878 81.2618 82.2671 74.9412 74.4702 74.9412C66.6732 74.9412 60.3525 81.2618 60.3525 89.0588C60.3525 96.8558 66.6732 103.176 74.4702 103.176Z"
        stroke="#40BA21"
        stroke-width="4"
    />
    <path
        d="M65.0586 100.823V122L74.4704 114.941L83.8821 122V100.823"
        stroke="#40BA21"
        stroke-width="4"
    />
    <path
        d="M50.9412 107.882H27.4118C24.9156 107.882 22.5217 106.891 20.7566 105.126C18.9916 103.361 18 100.967 18 98.4706V51.4118C18 46.2353 22.2353 42 27.4118 42H93.2941C95.7903 42 98.1842 42.9916 99.9492 44.7566C101.714 46.5217 102.706 48.9156 102.706 51.4118V98.4706C102.704 100.121 102.269 101.742 101.443 103.171C100.617 104.6 99.4293 105.787 98 106.612"
        stroke="#40BA21"
        stroke-width="4"
    />
    <path d="M32.1172 60.8235H88.5878" stroke="#40BA21" stroke-width="4" />
    <path d="M32.1172 74.9412H46.2348" stroke="#40BA21" stroke-width="4" />
    <path d="M32.1172 89.0588H41.529" stroke="#40BA21" stroke-width="4" />
</svg>
