<svg
    width="120"
    height="132"
    viewBox="0 0 120 132"
    fill="none"
    xmlns="http://www.w3.org/2000/svg"
>
    <path
        d="M89 79V53.9941C89 53.3576 88.7472 52.7472 88.2972 52.297L75.7028 39.703C75.2528 39.2528 74.6424 39 74.006 39H27.4C26.0745 39 25 40.0745 25 41.4V116.6C25 117.926 26.0745 119 27.4 119H53"
        stroke="#40BA21"
        stroke-width="4"
    />
    <path
        d="M41 87H53M41 71H73H41ZM41 55H57H41Z"
        stroke="#40BA21"
        stroke-width="4"
    />
    <path
        d="M73 52.6V40.4142C73 39.6332 73.6332 39 74.4144 39C74.7892 39 75.1488 39.149 75.4144 39.4142L88.5856 52.5858C88.8512 52.851 89 53.2107 89 53.5858C89 54.3668 88.3668 55 87.5856 55H75.4C74.0744 55 73 53.9255 73 52.6Z"
        stroke="#40BA21"
        stroke-width="4"
    />
    <path
        d="M97 100.119C97 102.525 96.05 104.835 94.3532 106.544C90.4476 110.48 86.66 114.584 82.6084 118.377C81.68 119.234 80.2068 119.203 79.318 118.307L67.646 106.544C64.118 102.989 64.118 97.249 67.646 93.6936C71.2087 90.1032 77.0128 90.1032 80.5752 93.6936L80.9996 94.1211L81.4236 93.6938C83.132 91.9714 85.4584 91 87.8884 91C90.3188 91 92.6452 91.9714 94.3532 93.6936C96.05 95.4029 97 97.7134 97 100.119Z"
        stroke="#40BA21"
        stroke-width="4"
    />
</svg>
