<svg
    width="120"
    height="132"
    viewBox="0 0 120 132"
    fill="none"
    xmlns="http://www.w3.org/2000/svg"
>
    <path
        d="M20 116.333V41.6667C20 40.1939 21.1939 39 22.6667 39H97.3333C98.8062 39 100 40.1939 100 41.6667V116.333C100 117.806 98.8062 119 97.3333 119H22.6667C21.1939 119 20 117.806 20 116.333Z"
        stroke="#40BA21"
        stroke-width="4"
    />
    <path
        d="M60.0003 98.5156V107.889M73.3337 63.4445C70.2892 60.4001 64.9279 58.2825 60.0003 58.1499L73.3337 63.4445ZM46.667 92.3334C49.5313 96.1525 54.8572 98.3307 60.0003 98.5156L46.667 92.3334ZM60.0003 58.1499C54.1377 57.9921 48.8892 60.6444 48.8892 67.889C48.8892 81.2222 73.3337 74.5556 73.3337 87.8889C73.3337 95.4934 66.8279 98.7609 60.0003 98.5156V58.1499ZM60.0003 58.1499V50.1111V58.1499Z"
        stroke="#40BA21"
        stroke-width="4"
    />
</svg>
