<svg
    width="120"
    height="132"
    viewBox="0 0 120 132"
    fill="none"
    xmlns="http://www.w3.org/2000/svg"
>
    <path
        d="M110.834 118.917V114.333C110.834 96.6142 96.4698 82.25 78.7507 82.25C61.0315 82.25 46.6673 96.6142 46.6673 114.333V118.917"
        stroke="#40BA21"
        stroke-width="4"
    />
    <path
        d="M55.834 91.4167C55.834 78.7603 45.5737 68.5 32.9173 68.5C20.2609 68.5 10.0007 78.7603 10.0007 91.4167V93.7083"
        stroke="#40BA21"
        stroke-width="4"
    />
    <path
        d="M78.7507 82.2499C68.6256 82.2499 60.4173 74.0416 60.4173 63.9166C60.4173 53.7914 68.6256 45.5833 78.7507 45.5833C88.8759 45.5833 97.084 53.7914 97.084 63.9166C97.084 74.0416 88.8759 82.2499 78.7507 82.2499Z"
        stroke="#40BA21"
        stroke-width="4"
        stroke-linejoin="round"
    />
    <path
        d="M32.917 68.5C25.3229 68.5 19.167 62.3439 19.167 54.75C19.167 47.1561 25.3229 41 32.917 41C40.5111 41 46.667 47.1561 46.667 54.75C46.667 62.3439 40.5111 68.5 32.917 68.5Z"
        stroke="#40BA21"
        stroke-width="4"
        stroke-linejoin="round"
    />
</svg>
