<svg
    width="120"
    height="132"
    viewBox="0 0 120 132"
    fill="none"
    xmlns="http://www.w3.org/2000/svg"
>
    <path
        d="M20 55.7778V46.8889C20 44.5314 20.9365 42.2705 22.6035 40.6035C24.2705 38.9365 26.5314 38 28.8889 38H37.7778"
        stroke="#40BA21"
        stroke-width="4"
    />
    <path
        d="M20 95.7778V106.889C20 109.836 20.9365 112.662 22.6035 114.746C24.2705 116.829 26.5314 118 28.8889 118H37.7778"
        stroke="#40BA21"
        stroke-width="4"
    />
    <path
        d="M77.7773 38H88.8884C91.8353 38 94.6614 38.9365 96.7452 40.6035C98.8289 42.2705 99.9995 44.5314 99.9995 46.8889V55.7778"
        stroke="#40BA21"
        stroke-width="4"
    />
    <path
        d="M77.7773 118H88.8884C91.8353 118 94.6614 116.829 96.7452 114.746C98.8289 112.662 99.9995 109.836 99.9995 106.889V95.7778"
        stroke="#40BA21"
        stroke-width="4"
    />
    <path
        d="M73.3337 73.5554H46.6671C44.2125 73.5554 42.2227 75.5453 42.2227 77.9999V91.3332C42.2227 93.7878 44.2125 95.7776 46.6671 95.7776H73.3337C75.7883 95.7776 77.7782 93.7878 77.7782 91.3332V77.9999C77.7782 75.5453 75.7883 73.5554 73.3337 73.5554Z"
        stroke="#40BA21"
        stroke-width="4"
    />
    <path
        d="M51.1113 73.5556V64.6667C51.1113 62.3092 52.0478 60.0483 53.7148 58.3813C55.3818 56.7143 57.6427 55.7778 60.0002 55.7778C62.3577 55.7778 64.6186 56.7143 66.2856 58.3813C67.9526 60.0483 68.8891 62.3092 68.8891 64.6667V73.5556"
        stroke="#40BA21"
        stroke-width="4"
    />
</svg>
