<svg width="24" height="24" viewBox="0 0 24 24" fill="none" xmlns="http://www.w3.org/2000/svg">
<path d="M20 12V5.74853C20 5.5894 19.9368 5.43679 19.8243 5.32426L16.6757 2.17574C16.5632 2.06321 16.4106 2 16.2515 2H4.6C4.26863 2 4 2.26863 4 2.6V21.4C4 21.7314 4.26863 22 4.6 22H11" stroke="#40BA21" stroke-width="1.5"/>
<path d="M8 14H11M8 10H16H8ZM8 6H12H8Z" stroke="#40BA21" stroke-width="1.5"/>
<path d="M16 5.4V2.35355C16 2.15829 16.1583 2 16.3536 2C16.4473 2 16.5372 2.03725 16.6036 2.10355L19.8964 5.39645C19.9628 5.46275 20 5.55268 20 5.64645C20 5.84171 19.8417 6 19.6464 6H16.6C16.2686 6 16 5.73137 16 5.4Z" stroke="#40BA21" stroke-width="1.5"/>
<path d="M22 17.2797C22 17.8812 21.7625 18.4588 21.3383 18.8861C20.3619 19.8701 19.415 20.8961 18.4021 21.8443C18.17 22.0585 17.8017 22.0507 17.5795 21.8268L14.6615 18.8861C13.7795 17.9972 13.7795 16.5622 14.6615 15.6734C15.5522 14.7758 17.0032 14.7758 17.8938 15.6734L17.9999 15.7803L18.1059 15.6734C18.533 15.2429 19.1146 15 19.7221 15C20.3297 15 20.9113 15.2428 21.3383 15.6734C21.7625 16.1007 22 16.6783 22 17.2797Z" stroke="#40BA21" stroke-width="1.5"/>
</svg>
