<svg width="24" height="24" viewBox="0 0 24 24" fill="none" xmlns="http://www.w3.org/2000/svg">
<path d="M3 7V5C3 4.46957 3.21071 3.96086 3.58579 3.58579C3.96086 3.21071 4.46957 3 5 3H7" stroke="#40BA21" stroke-width="1.5"/>
<path d="M3 16V18.5C3 19.163 3.21071 19.7989 3.58579 20.2678C3.96086 20.7366 4.46957 21 5 21H7" stroke="#40BA21" stroke-width="1.5"/>
<path d="M16 3H18.5C19.163 3 19.7989 3.21071 20.2678 3.58579C20.7366 3.96086 21 4.46957 21 5V7" stroke="#40BA21" stroke-width="1.5"/>
<path d="M16 21H18.5C19.163 21 19.7989 20.7366 20.2678 20.2678C20.7366 19.7989 21 19.163 21 18.5V16" stroke="#40BA21" stroke-width="1.5"/>
<path d="M15 11H9C8.44772 11 8 11.4477 8 12V15C8 15.5523 8.44772 16 9 16H15C15.5523 16 16 15.5523 16 15V12C16 11.4477 15.5523 11 15 11Z" stroke="#40BA21" stroke-width="1.5"/>
<path d="M10 11V9C10 8.46957 10.2107 7.96086 10.5858 7.58579C10.9609 7.21071 11.4696 7 12 7C12.5304 7 13.0391 7.21071 13.4142 7.58579C13.7893 7.96086 14 8.46957 14 9V11" stroke="#40BA21" stroke-width="1.5"/>
</svg>
