<svg width="100" height="24" viewBox="0 0 100 24" fill="none" xmlns="http://www.w3.org/2000/svg">
<path fill-rule="evenodd" clip-rule="evenodd" d="M82.4972 13.0726H76.8767C76.0468 13.0726 76.0468 14.1909 76.8767 14.1909C77.6311 14.1909 78.3478 14.1909 79.0645 14.1909C79.1022 14.1909 79.1777 14.1909 79.2154 14.1909H80.6111C81.5541 14.1909 82.6481 14.9621 82.6481 16.0033V16.3118C82.6481 17.353 81.5541 18.1242 80.6111 18.1242H80.3093H79.0645H78.9136H74.5002V16.6974H80.3093C81.1769 16.6974 81.1392 15.5791 80.3093 15.5791C79.5549 15.5791 78.8382 15.5791 78.1215 15.5791C78.0837 15.5791 78.0083 15.5791 77.9706 15.5791H76.5749C75.6319 15.5791 74.5379 14.8079 74.5379 13.7667V13.4582C74.5379 12.417 75.6319 11.6458 76.5749 11.6458H78.1592H82.5349V13.0726H82.4972ZM61.5617 14.1909H65.3338C66.1637 14.1909 66.1637 13.0726 65.3338 13.0726H64.3154H62.8819H61.8635C61.524 13.0726 61.2599 13.3039 61.1845 13.6124V14.1909C61.3354 14.1909 61.4485 14.1909 61.5617 14.1909ZM67.7103 16.6974H61.9012C61.0713 16.6974 61.0713 15.5791 61.9012 15.5791C62.6556 15.5791 63.3723 15.5791 64.089 15.5791C64.1268 15.5791 64.2022 15.5791 64.2399 15.5791H65.6356C66.5787 15.5791 67.6726 14.8079 67.6726 13.7667V13.4582C67.6726 12.417 66.5787 11.6458 65.6356 11.6458H64.3154H64.0513H62.8442H61.524C60.5809 11.6458 59.487 12.417 59.487 13.4582V13.6124V16.0033V16.3118C59.487 17.353 60.5809 18.1242 61.524 18.1242C63.5609 18.1242 65.6356 18.1242 67.6726 18.1242V16.6974H67.7103ZM91.2486 17.0445V17.7386V18.0856H90.5319H88.9476C88.0045 18.0856 86.9106 17.3144 86.9106 16.2732V14.3837V13.4582V9.40916C86.9106 8.52223 87.5896 7.82811 88.4572 7.82811H88.6458V11.6843C88.759 11.6843 88.8721 11.6458 88.9476 11.6458H90.5319H90.7582V13.0726H89.702H88.6458V14.1523V14.7693V15.6177C88.6458 16.1961 89.1362 16.6974 89.702 16.6974H91.2486V17.0445ZM59.5247 11.6458C58.7703 11.6458 57.7141 11.5301 57.1483 12.4556L54.5832 16.4275L52.0181 12.4556C51.49 11.5301 50.4338 11.6458 49.6417 11.6458L53.112 17.1216C53.4515 17.6614 53.8665 18.0471 54.3569 18.1242C54.9604 18.2013 55.5262 17.8543 55.9789 17.1216C57.1483 15.4248 58.3931 13.4967 59.5247 11.6458ZM37.0426 13.034C37.0426 12.2242 37.5707 11.6458 38.3629 11.6458H39.4945C39.6077 11.6458 39.7209 11.6843 39.9472 11.8771L44.6624 16.5817V12.7255C44.6624 11.9157 45.1905 11.6072 45.9827 11.6072H47.1143C46.6994 11.6458 46.3976 11.7614 46.3976 12.8797V17.083C46.3976 17.4686 46.0958 18.0471 45.7186 18.0471H44.5492H44.172C43.7948 18.0471 43.493 17.7 43.229 17.4301L38.8155 12.9569C38.8155 12.9954 38.8155 13.034 38.8155 13.1111V18.0471H37.0804V13.034H37.0426ZM69.0683 13.034C69.0683 12.2242 69.8227 11.6458 70.6149 11.6458H70.8035H73.3686H73.8967V13.0726H73.3686H71.822C71.2561 13.0726 70.7658 13.5739 70.7658 14.1523V18.1242H69.0306V13.034H69.0683ZM100 23.0216H99.8114C98.9438 23.0216 98.2648 22.3275 98.2648 21.4405V18.0856C98.1516 18.0856 98.0385 18.1242 97.9631 18.1242H95.2094H93.8137C92.8706 18.1242 91.7767 17.353 91.7767 16.3118V13.4967C91.7767 12.5713 92.6443 11.8771 93.4742 11.7229V13.8052V15.232V16.0418C93.4742 16.4275 93.7759 16.6974 94.1532 16.6974H97.6613C97.9631 16.6974 98.2648 16.466 98.3025 16.1575C98.3025 16.119 98.3025 16.0418 98.3025 16.0033V15.1935V14.4222V13.4967C98.3025 12.5713 99.1701 11.8771 100 11.7229V13.8052V16.119V16.3503V23.0216ZM83.9306 13.034C83.9306 12.2242 84.685 11.6458 85.4772 11.6458H85.6658V18.0856H83.9306V13.034ZM29.2343 11.6843C28.3667 11.8386 27.5368 12.5713 27.5368 13.4582V16.2732C27.5368 17.3144 28.6307 18.0856 29.5738 18.0856H31.6484H32.3274H33.7231C34.6662 18.0856 35.7601 17.3144 35.7601 16.2732C35.7601 15.4248 35.7601 14.5765 35.7601 13.7281V11.6458C34.8925 11.8 34.0626 12.5327 34.0626 13.4196C34.0626 14.268 34.0626 15.1164 34.0626 15.9647C34.0626 16.3503 33.7608 16.6588 33.3836 16.6588H31.6484H29.9132C29.536 16.6588 29.2343 16.3503 29.2343 15.9647V15.4634V13.7281V11.6843ZM47.6801 13.034C47.6801 12.2242 48.4346 11.6458 49.2267 11.6458H49.4153V18.0856H47.6801V13.034ZM0 5.20589C0 4.39608 0.754435 3.81765 1.54659 3.81765H1.7352V10.2575H0V5.20589ZM18.2573 4.93595C18.2573 4.12615 18.7854 3.81765 19.5775 3.81765H20.7092C20.2565 3.85621 19.9925 3.9719 19.9925 5.0902V9.29347C19.9925 9.67909 19.6907 10.2575 19.3135 10.2575H17.7292C17.3519 10.2575 17.0502 9.91046 16.7861 9.64053L12.335 5.20589V9.33203C12.335 9.71765 12.0332 10.2961 11.656 10.2961H10.0717C9.69446 10.2961 9.39268 9.94903 9.12863 9.67909L4.7152 5.20589C4.7152 5.24445 4.7152 5.28301 4.7152 5.36014V10.2961H2.98001V5.20589C2.98001 4.39608 3.50811 3.81765 4.30027 3.81765H5.43191C5.54508 3.81765 5.65825 3.85621 5.88457 4.04902L10.5998 8.7536V4.89739C10.5998 4.08758 11.1279 3.77909 11.92 3.77909H13.0517C13.1648 3.77909 13.278 3.81765 13.5043 4.01046L18.2195 8.71504V4.93595H18.2573ZM67.5217 5.24445H61.9012C61.0713 5.24445 61.0713 6.36275 61.9012 6.36275C62.6556 6.36275 63.3723 6.36275 64.089 6.36275C64.1268 6.36275 64.2022 6.36275 64.2399 6.36275H65.6356C66.5787 6.36275 67.6726 7.13399 67.6726 8.17517V8.48367C67.6726 9.52484 66.5787 10.2961 65.6356 10.2961H65.3716H64.1268H63.9759H59.5624V8.86929H65.3716C66.2392 8.86929 66.2014 7.75099 65.3716 7.75099C64.6171 7.75099 63.9004 7.75099 63.1837 7.75099C63.146 7.75099 63.0705 7.75099 63.0328 7.75099H61.6371C60.6941 7.75099 59.6002 6.97974 59.6002 5.93857V5.63007C59.6002 4.58889 60.6941 3.81765 61.6371 3.81765H63.2214H67.5971V5.24445H67.5217ZM56.3561 5.20589C56.3561 4.39608 57.1105 3.81765 57.9027 3.81765H58.0913V10.2575H56.3561V5.20589ZM51.5655 0V7.78955C51.5655 8.36798 52.0558 8.86929 52.6217 8.86929H54.9227V9.21635V9.91046V10.2575H53.4515H51.8672C50.9242 10.2575 49.8303 9.48628 49.8303 8.4451V1.58105C49.8303 0.694118 50.5092 0 51.3768 0H51.5655ZM27.4991 10.2961H26.9332H26.0656H25.3867H23.3497C22.4066 10.2961 21.3127 9.52484 21.3127 8.48367V5.66863C21.3127 4.62745 22.4066 3.85621 23.3497 3.85621H23.7646H24.4059H24.8963H25.7639H27.4613C28.4044 3.85621 29.4983 4.62745 29.4983 5.66863V8.48367C29.536 9.48628 28.4421 10.2961 27.4991 10.2961ZM27.8386 8.17517V5.93857C27.8386 5.55295 27.5368 5.24445 27.1596 5.24445H23.6515C23.3497 5.24445 23.0479 5.47582 22.9725 5.82288C22.9725 5.86144 22.9725 6.13138 22.9725 6.16994V8.17517C22.9725 8.56079 23.2742 8.86929 23.6515 8.86929H25.3867H27.1218C27.5368 8.86929 27.8386 8.56079 27.8386 8.17517ZM37.0049 10.2961H35.6092H35.5715H35.5338H35.496H35.4583H35.4206H35.3829H35.3452H35.3074H35.2697H35.232H35.1943H35.1565H35.1188H35.1943H35.1565H35.1188H35.0811H32.8555C32.7424 10.2961 32.6292 10.2961 32.5538 10.2575V13.6124C32.5538 14.4994 31.8748 15.1935 31.0072 15.1935H30.8186V5.66863C30.8186 4.62745 31.9125 3.85621 32.8555 3.85621H33.1196H34.4021H34.6662H37.0049C37.948 3.85621 39.0419 4.62745 39.0419 5.66863V8.48367C39.0796 9.48628 37.948 10.2961 37.0049 10.2961ZM37.3444 8.21373V7.98236V5.93857C37.3444 5.55295 37.0426 5.24445 36.7031 5.24445H33.195C32.8178 5.24445 32.516 5.55295 32.516 5.93857V8.17517C32.516 8.56079 32.8178 8.86929 33.195 8.86929H36.7031C37.0426 8.86929 37.3444 8.56079 37.3444 8.21373ZM36.7031 5.24445H33.195H36.7031ZM33.1573 5.24445C33.1196 5.24445 33.1196 5.24445 33.0819 5.24445C33.0819 5.24445 33.1196 5.24445 33.1573 5.24445ZM33.0441 5.24445C33.0064 5.24445 32.9687 5.24445 32.931 5.28301C32.9687 5.28301 33.0064 5.24445 33.0441 5.24445ZM46.5862 10.2961H46.0204H45.1528H44.4738H44.4361H42.3991C41.4561 10.2961 40.3621 9.52484 40.3621 8.48367V5.66863C40.3621 4.62745 41.4561 3.85621 42.3991 3.85621H42.814H43.4553H43.9457H44.8133H46.5108C47.4538 3.85621 48.5477 4.62745 48.5477 5.66863V8.48367C48.6232 9.48628 47.5292 10.2961 46.5862 10.2961ZM46.9257 8.17517V5.93857C46.9257 5.55295 46.6239 5.24445 46.2467 5.24445H42.7386C42.4368 5.24445 42.135 5.47582 42.0596 5.82288C42.0596 5.86144 42.0596 6.13138 42.0596 6.16994V8.17517C42.0596 8.56079 42.3614 8.86929 42.7386 8.86929H44.4738H46.209C46.6239 8.86929 46.9257 8.56079 46.9257 8.17517Z" fill="#40BA21"/>
</svg>
