<svg
    width="32"
    height="32"
    viewBox="0 0 32 32"
    fill="none"
    xmlns="http://www.w3.org/2000/svg"
>
    <path
        d="M14.1135 14.6846C13.7396 14.6846 13.4366 14.9876 13.4366 15.3615V20.9024C13.4366 21.2764 13.7396 21.5794 14.1135 21.5794C14.4875 21.5794 14.7905 21.2764 14.7905 20.9024V15.3615C14.7905 14.9876 14.4875 14.6846 14.1135 14.6846Z"
        fill="#40BA21"
    />
    <path
        d="M7.1404 15.5354C6.76647 15.5354 6.46349 15.8384 6.46349 16.2123V20.7638C6.46349 21.1377 6.76647 21.4407 7.1404 21.4407C7.51433 21.4407 7.81732 21.1377 7.81732 20.7638V16.2123C7.81732 15.8384 7.51433 15.5354 7.1404 15.5354Z"
        fill="#40BA21"
    />
    <path
        d="M10.627 16.7627C10.253 16.7627 9.95006 17.0657 9.95006 17.4396V20.2167C9.95006 20.5907 10.253 20.8937 10.627 20.8937C11.0009 20.8937 11.3039 20.5907 11.3039 20.2167V17.4396C11.3039 17.0657 11.0009 16.7627 10.627 16.7627Z"
        fill="#40BA21"
    />
    <path
        d="M17.6223 15.0806C17.2483 15.0806 16.9453 15.3836 16.9453 15.7575V19.3032C16.9453 19.6771 17.2483 19.9801 17.6223 19.9801C17.9962 19.9801 18.2992 19.6771 18.2992 19.3032V15.7575C18.2992 15.3839 17.9958 15.0806 17.6223 15.0806Z"
        fill="#40BA21"
    />
    <path
        d="M24.6394 12.7407C24.2654 12.7407 23.9624 13.0437 23.9624 13.4176V15.8434C23.9624 16.2173 24.2654 16.5203 24.6394 16.5203C25.0133 16.5203 25.3163 16.2173 25.3163 15.8434V13.4176C25.3163 13.0441 25.0133 12.7407 24.6394 12.7407Z"
        fill="#40BA21"
    />
    <path
        d="M29.8814 15.2148C29.8806 15.2018 29.8799 15.1889 29.8781 15.176C29.877 15.1667 29.8751 15.1571 29.8736 15.1479C29.8714 15.1361 29.8699 15.1239 29.867 15.1121C29.8644 15.101 29.8611 15.0899 29.8581 15.0788C29.8555 15.0688 29.8529 15.0592 29.85 15.0492C29.8455 15.0352 29.84 15.0219 29.8345 15.0082C29.8315 15.0012 29.8293 14.9946 29.8263 14.9875C29.8193 14.9716 29.8116 14.9565 29.8034 14.9413C29.8012 14.9373 29.7994 14.9328 29.7971 14.9284L29.7946 14.924C29.7938 14.9229 29.7931 14.9214 29.7923 14.9203L26.3398 8.75266C26.3394 8.75229 26.3394 8.75192 26.339 8.75155C26.3287 8.73308 26.3172 8.71534 26.3054 8.69797C26.3043 8.6965 26.3036 8.69502 26.3025 8.69354C26.291 8.67728 26.2784 8.66139 26.2659 8.64625C26.264 8.64403 26.2625 8.64181 26.2607 8.63996C26.2507 8.62888 26.2404 8.61816 26.23 8.60782C26.2245 8.60227 26.2197 8.59636 26.2141 8.59119C26.2134 8.59045 26.2127 8.58971 26.2119 8.58934C26.1369 8.51914 26.0482 8.46852 25.9525 8.43859C25.9459 8.43637 25.9396 8.43415 25.9333 8.43231C25.9252 8.43009 25.9174 8.42861 25.9093 8.42676C25.8683 8.41679 25.8262 8.41051 25.7833 8.40829C25.7685 8.40755 25.7538 8.40644 25.739 8.40681C25.7364 8.40681 25.7334 8.40718 25.7308 8.40718C25.7113 8.40755 25.6917 8.40866 25.6717 8.41088C25.6706 8.41088 25.6699 8.41125 25.6688 8.41125C25.6473 8.41383 25.6259 8.41716 25.6048 8.42196C25.603 8.42233 25.6012 8.42307 25.5993 8.42344C25.5794 8.42787 25.5594 8.43342 25.5394 8.4397C25.5387 8.44007 25.5383 8.44007 25.5376 8.44007L10.7153 13.3034C10.6532 13.3237 10.5874 13.3318 10.522 13.3274L3.94427 12.8685C3.93873 12.8681 3.93393 12.8685 3.92838 12.8681C3.91545 12.8674 3.90252 12.8674 3.88959 12.8674C3.88035 12.8674 3.87111 12.8677 3.86187 12.8681C3.84783 12.8688 3.83416 12.87 3.82012 12.8714C3.81199 12.8725 3.80349 12.8733 3.79537 12.8748C3.78132 12.877 3.76728 12.8796 3.75324 12.8825C3.74548 12.8844 3.73772 12.8858 3.73033 12.8881C3.71666 12.8914 3.70299 12.8954 3.68932 12.8999C3.68193 12.9025 3.67454 12.9047 3.66715 12.9073C3.65422 12.9121 3.64092 12.9172 3.62835 12.9228C3.62096 12.9261 3.61394 12.9291 3.60655 12.9328C3.59399 12.9387 3.58217 12.945 3.56997 12.9516C3.56295 12.9557 3.55593 12.9594 3.54891 12.9638C3.53746 12.9708 3.526 12.9782 3.51492 12.9856C3.50827 12.9904 3.50125 12.9948 3.49497 13C3.48425 13.0078 3.4739 13.0163 3.46356 13.0248C3.45691 13.0303 3.45063 13.0355 3.44434 13.0414C3.43474 13.0503 3.42513 13.0591 3.41589 13.0684C3.40961 13.0747 3.4037 13.0809 3.39779 13.0872C3.38929 13.0965 3.38079 13.1061 3.37303 13.116C3.36712 13.1231 3.36158 13.1304 3.35603 13.1378C3.34865 13.1478 3.34162 13.1578 3.3346 13.1681C3.32906 13.1763 3.32389 13.1844 3.31872 13.1929C3.3128 13.2029 3.30689 13.2132 3.30135 13.2236C3.29655 13.2328 3.29174 13.242 3.28694 13.2516C3.28214 13.2616 3.27733 13.272 3.27327 13.2823C3.26883 13.2927 3.26477 13.303 3.26107 13.3137C3.25738 13.3237 3.25405 13.334 3.25073 13.3444C3.2474 13.3558 3.24408 13.3669 3.24112 13.3787C3.23854 13.3891 3.23632 13.3994 3.2341 13.4102C3.23188 13.422 3.22967 13.4338 3.22782 13.446C3.22708 13.4515 3.2256 13.4567 3.22486 13.4623L2.3802 20.3766C2.37946 20.3829 2.37946 20.3896 2.37872 20.3958C2.37761 20.408 2.3765 20.4202 2.37613 20.4328C2.37576 20.4435 2.37576 20.4538 2.37576 20.4642C2.37576 20.4756 2.37613 20.4871 2.37687 20.4986C2.37761 20.5096 2.37835 20.5204 2.37983 20.5311C2.38094 20.5422 2.38241 20.5529 2.38426 20.564C2.38611 20.575 2.38796 20.5858 2.39017 20.5965C2.39239 20.6072 2.39498 20.6179 2.39756 20.6286C2.40052 20.6393 2.40348 20.6497 2.40643 20.66C2.40976 20.6707 2.41345 20.6811 2.41715 20.6918C2.42084 20.7022 2.42491 20.7121 2.42934 20.7221C2.43377 20.7321 2.43821 20.7424 2.44301 20.7524C2.44781 20.7627 2.45336 20.7727 2.4589 20.7827C2.46407 20.7919 2.46925 20.8012 2.47479 20.8104C2.48107 20.8208 2.48772 20.8307 2.49474 20.8411C2.49844 20.8466 2.50139 20.8522 2.50546 20.8573L3.20935 21.8228C3.26773 21.9026 3.29913 21.9991 3.29913 22.0981V23.1855C3.29913 23.5595 3.60212 23.8624 3.97605 23.8624H24.639C25.0129 23.8624 25.3159 23.5595 25.3159 23.1855V19.7533C25.3159 19.6613 25.3554 19.5737 25.4242 19.5127L29.6482 15.7723C29.649 15.7716 29.6497 15.7709 29.6508 15.7701L29.6549 15.7664C29.659 15.7627 29.6623 15.759 29.6663 15.7553C29.6785 15.7439 29.6907 15.7324 29.7022 15.7202C29.7074 15.7147 29.7122 15.7084 29.7173 15.7025C29.7266 15.6918 29.7362 15.6807 29.745 15.6696C29.7513 15.6615 29.7569 15.6526 29.7628 15.6441C29.7691 15.6349 29.7757 15.6253 29.782 15.6157C29.7886 15.6053 29.7942 15.5946 29.8001 15.5839C29.8045 15.5758 29.8093 15.5673 29.8134 15.5588C29.8193 15.5473 29.8241 15.5351 29.8293 15.5233C29.8326 15.5152 29.8363 15.507 29.8396 15.4989C29.8441 15.4871 29.8478 15.4749 29.8515 15.4631C29.8544 15.4542 29.8574 15.4453 29.8596 15.4365C29.8625 15.4254 29.8651 15.4139 29.8673 15.4028C29.8696 15.3925 29.8722 15.3825 29.8736 15.3722C29.8751 15.3622 29.8766 15.3519 29.8777 15.3419C29.8792 15.3301 29.8806 15.3186 29.8814 15.3068C29.8821 15.2975 29.8821 15.2887 29.8825 15.2794C29.8829 15.2665 29.8832 15.2539 29.8829 15.241C29.8829 15.2321 29.8818 15.2236 29.8814 15.2148ZM28.2083 15.2388L24.1904 18.7967C24.1856 18.8011 24.1812 18.8059 24.1764 18.8103C24.1679 18.8185 24.1594 18.8266 24.1513 18.8351C24.1435 18.8432 24.1361 18.8517 24.1287 18.8598C24.1217 18.868 24.115 18.8757 24.1084 18.8842C24.101 18.8935 24.094 18.9031 24.087 18.9127C24.081 18.9208 24.0755 18.9289 24.0703 18.9374C24.0637 18.9474 24.0578 18.9578 24.0519 18.9681C24.0467 18.977 24.0419 18.9858 24.0374 18.9951C24.0323 19.0051 24.0271 19.0154 24.0227 19.0257C24.0182 19.0357 24.0142 19.0457 24.0101 19.056C24.0064 19.066 24.0027 19.076 23.999 19.086C23.9953 19.0967 23.992 19.1078 23.9887 19.1189C23.9857 19.1288 23.9831 19.1392 23.9809 19.1492C23.9783 19.1602 23.9761 19.1713 23.9739 19.1828C23.972 19.1935 23.9706 19.2046 23.9691 19.2157C23.9676 19.2264 23.9665 19.2371 23.9658 19.2478C23.9647 19.26 23.9643 19.2722 23.9639 19.2848C23.9635 19.291 23.9628 19.297 23.9628 19.3036V22.2463C23.9628 22.3911 23.8453 22.5082 23.7008 22.5082H4.83993C4.73684 22.5082 4.65333 22.4247 4.65333 22.3217V21.7249C4.65333 21.7212 4.65296 21.7175 4.6526 21.7138C4.65223 21.7009 4.65149 21.6876 4.65075 21.6747C4.65001 21.6654 4.64964 21.6558 4.64853 21.6466C4.64705 21.634 4.64484 21.6218 4.64299 21.6093C4.64151 21.5993 4.63966 21.5897 4.63745 21.5801C4.63486 21.5686 4.6319 21.5575 4.62895 21.5464C4.62599 21.5361 4.62341 21.5258 4.62008 21.5154C4.61675 21.5054 4.61269 21.4955 4.60899 21.4851C4.60493 21.474 4.60087 21.4633 4.59606 21.4526C4.592 21.4437 4.58756 21.4349 4.58313 21.4256C4.57759 21.4145 4.57205 21.4031 4.56576 21.3924C4.56096 21.3842 4.55616 21.3761 4.55098 21.368C4.54396 21.3569 4.53694 21.3458 4.52955 21.3351C4.52734 21.3321 4.52549 21.3288 4.52364 21.3259L3.87074 20.4302C3.79795 20.3304 3.76581 20.2067 3.78059 20.084L4.46415 14.4876C4.4793 14.362 4.59052 14.2703 4.71652 14.2792L10.6502 14.693C10.6528 14.6934 10.6551 14.6934 10.6576 14.6934H10.6591C10.6621 14.6938 10.665 14.6934 10.6684 14.6938C10.6809 14.6945 10.6935 14.6953 10.7064 14.6953C10.7267 14.6953 10.7471 14.6942 10.7674 14.6923C10.7737 14.6916 10.7799 14.6908 10.7862 14.6901C10.7988 14.6886 10.8117 14.6868 10.8243 14.6845C10.8331 14.6831 10.8416 14.6812 10.8505 14.6794C10.8605 14.6772 10.8705 14.6746 10.8804 14.672C10.8901 14.6694 10.8997 14.6668 10.9093 14.6639C10.9119 14.6631 10.9148 14.6624 10.9174 14.6616L25.2409 9.96239C25.3514 9.92618 25.4718 9.9731 25.5284 10.0743L28.2571 14.9487C28.311 15.0455 28.2907 15.166 28.2083 15.2388Z"
        fill="#40BA21"
    />
    <path
        d="M21.1306 12.7407C20.7567 12.7407 20.4537 13.0437 20.4537 13.4176V20.4129C20.4537 20.7869 20.7567 21.0898 21.1306 21.0898C21.5045 21.0898 21.8075 20.7869 21.8075 20.4129V13.4176C21.8079 13.0441 21.5045 12.7407 21.1306 12.7407Z"
        fill="#40BA21"
    />
</svg>
